<svg xmlns="http://www.w3.org/2000/svg" xmlns:v="https://svgstorm.com"
viewBox = "0 0 209 209"
width="209"
height="209">
<g fill="None" fill-opacity="0.0" stroke="#000000" stroke-opacity="0.00" stroke-width="0.3"><path d="
M 0.00 209.00 
L 209.00 209.00
L 209.00 0.00
L 0.00 0.00
L 0.00 209.00
M 74.00 182.00 
C 56.32 180.68 36.09 184.65 20.00 180.00
C 15.80 164.66 37.92 174.91 47.00 172.00
C 34.75 157.15 19.15 140.67 15.40 120.26 C 11.61 97.34 13.58 70.98 28.25 52.25 C 33.90 45.67 41.71 29.53 50.00 35.00
C 50.00 37.33 50.00 39.67 50.00 42.00
C 19.14 68.98 13.98 118.83 41.75 149.25 C 63.16 148.55 73.15 121.26 62.07 103.93 C 58.48 93.71 53.96 83.54 55.00 72.00 C 54.72 61.88 65.70 53.81 55.08 45.92 C 51.04 39.09 51.13 16.48 63.75 28.25 C 80.16 45.91 103.99 25.91 123.07 35.93 C 132.31 38.53 141.81 32.11 148.25 25.25 C 161.92 22.63 155.64 44.50 150.25 50.25 C 145.88 59.25 158.14 68.71 154.00 80.00 C 152.12 99.07 132.75 120.82 148.25 138.75 C 153.81 144.78 165.56 155.54 170.90 144.90 C 188.93 120.58 190.87 83.80 172.70 58.30 C 168.09 49.69 155.92 44.52 159.00 33.00
C 174.90 36.85 183.35 56.27 190.77 70.23 C 202.76 105.92 191.07 149.55 160.00 170.00
C 168.38 171.78 179.27 171.50 188.00 170.00
C 189.95 173.33 188.28 177.59 190.00 181.00
C 169.74 182.19 147.85 178.14 129.00 184.00 C 111.43 189.49 90.64 188.83 74.00 182.00 Z"/>
</g>
<g fill="None" fill-opacity="0.0" stroke="#FFFFFF" stroke-opacity="0.25" stroke-width="0.3"><path d="
M 50.00 42.00 
C 45.86 44.70 43.09 49.35 39.00 52.00
C 15.16 79.08 16.33 125.18 41.25 151.75 C 58.23 150.38 74.55 131.06 67.01 113.99 C 62.55 96.51 50.57 76.92 60.77 58.77 C 66.87 50.57 52.42 44.60 55.00 35.00 C 52.76 18.74 64.21 32.29 70.70 35.30 C 88.12 42.39 108.81 28.80 127.02 38.98 C 135.10 36.71 143.54 34.28 149.25 27.25 C 158.70 25.25 152.79 44.10 149.23 49.23 C 139.51 55.66 154.82 63.12 152.00 72.00 C 153.07 97.51 124.27 129.52 155.25 147.75 C 163.12 154.33 171.65 151.34 174.92 141.92 C 195.33 111.89 189.85 65.28 161.00 43.00
C 161.14 39.69 159.34 37.13 161.00 34.00
C 208.36 67.29 201.03 142.83 155.00 173.00
C 161.67 173.00 168.33 173.00 175.00 173.00 C 180.25 172.75 191.81 171.42 187.00 180.00
C 168.46 181.02 146.64 177.50 128.33 182.33 C 110.72 188.03 91.44 185.85 74.00 181.00
C 74.05 181.50 74.00 182.00 74.00 182.00
C 90.64 188.83 111.43 189.49 129.00 184.00 C 147.85 178.14 169.74 182.19 190.00 181.00
C 188.28 177.59 189.95 173.33 188.00 170.00
C 179.27 171.50 168.38 171.78 160.00 170.00
C 191.07 149.55 202.76 105.92 190.77 70.23 C 183.35 56.27 174.90 36.85 159.00 33.00
C 155.92 44.52 168.09 49.69 172.70 58.30 C 190.87 83.80 188.93 120.58 170.90 144.90 C 165.56 155.54 153.81 144.78 148.25 138.75 C 132.75 120.82 152.12 99.07 154.00 80.00 C 158.14 68.71 145.88 59.25 150.25 50.25 C 155.64 44.50 161.92 22.63 148.25 25.25 C 141.81 32.11 132.31 38.53 123.07 35.93 C 103.99 25.91 80.16 45.91 63.75 28.25 C 51.13 16.48 51.04 39.09 55.08 45.92 C 65.70 53.81 54.72 61.88 55.00 72.00 C 53.96 83.54 58.48 93.71 62.07 103.93 C 73.15 121.26 63.16 148.55 41.75 149.25 C 13.98 118.83 19.14 68.98 50.00 42.00 Z"/>
</g>
<g fill="None" fill-opacity="0.0" stroke="#000000" stroke-opacity="0.96" stroke-width="0.3"><path d="
M 39.00 52.00 
C 41.49 47.82 45.01 43.87 49.00 41.00
C 47.37 38.71 49.54 36.54 48.00 34.00
C 1.49 66.75 6.41 142.59 54.00 172.00
C 48.58 174.28 41.18 172.37 35.00 173.00 C 30.10 173.05 17.86 171.09 22.00 179.00
C 38.83 179.67 56.99 177.67 73.00 180.00
C 73.30 180.22 73.97 180.65 74.00 181.00
C 91.44 185.85 110.72 188.03 128.33 182.33 C 146.64 177.50 168.46 181.02 187.00 180.00
C 191.81 171.42 180.25 172.75 175.00 173.00 C 168.33 173.00 161.67 173.00 155.00 173.00
C 201.03 142.83 208.36 67.29 161.00 34.00
C 159.34 37.13 161.14 39.69 161.00 43.00
C 189.85 65.28 195.33 111.89 174.92 141.92 C 171.65 151.34 163.12 154.33 155.25 147.75 C 124.27 129.52 153.07 97.51 152.00 72.00 C 154.82 63.12 139.51 55.66 149.23 49.23 C 152.79 44.10 158.70 25.25 149.25 27.25 C 143.54 34.28 135.10 36.71 127.02 38.98 C 108.81 28.80 88.12 42.39 70.70 35.30 C 64.21 32.29 52.76 18.74 55.00 35.00 C 52.42 44.60 66.87 50.57 60.77 58.77 C 50.57 76.92 62.55 96.51 67.01 113.99 C 74.55 131.06 58.23 150.38 41.25 151.75 C 16.33 125.18 15.16 79.08 39.00 52.00
M 104.00 60.00 
C 115.92 48.79 131.32 44.51 146.00 39.00
C 144.23 50.03 132.02 54.35 123.77 59.77 C 113.22 64.01 109.67 76.57 103.00 83.00
C 99.75 59.85 69.51 59.03 62.00 39.00
C 76.68 43.90 92.89 48.18 104.00 60.00
M 116.00 43.00 
C 113.00 46.24 108.31 47.95 104.92 50.92 C 100.90 48.88 96.32 46.07 93.00 43.00
C 99.55 39.78 109.08 40.32 116.00 43.00
M 140.00 58.00 
C 164.45 94.03 106.74 130.43 78.25 103.75 C 71.26 99.12 66.85 91.54 64.08 83.92 C 62.32 76.40 61.88 59.95 71.22 59.78 C 76.55 64.71 63.95 75.57 72.26 82.74 C 77.62 90.44 89.84 90.80 95.00 83.00
C 101.54 87.10 98.10 96.71 103.25 101.75 C 110.22 99.81 108.04 88.61 112.00 83.00
C 126.71 100.21 149.43 75.66 134.00 61.00
C 136.01 59.95 137.98 59.02 140.00 58.00
M 83.00 66.00 
C 89.52 69.33 96.75 80.51 84.99 81.99 C 74.51 84.31 72.44 65.14 83.00 66.00
M 129.00 66.00 
C 137.44 71.70 130.61 86.38 121.31 81.69 C 110.26 77.65 121.79 65.74 129.00 66.00
M 116.00 126.00 
C 116.00 130.00 116.00 134.00 116.00 138.00
C 115.59 141.18 117.69 143.72 117.00 147.00
C 110.97 151.16 104.44 148.09 107.00 140.00 C 101.78 134.23 100.33 145.03 101.00 149.00
C 80.82 147.36 73.76 125.80 72.00 109.00
C 86.04 117.55 103.88 121.00 120.00 118.00
C 118.29 120.50 117.72 123.85 116.00 126.00
M 136.00 109.00 
C 134.53 120.13 134.20 135.15 123.00 141.00
C 119.28 128.84 126.24 116.32 136.00 109.00
M 161.00 157.00 
C 157.31 162.58 148.12 172.77 141.25 167.75 C 135.22 161.68 128.28 155.56 127.00 147.00
C 130.06 145.12 134.31 141.14 135.00 137.00
C 142.42 143.93 149.77 154.94 161.00 157.00
M 82.00 147.00 
C 80.10 155.14 73.63 161.61 67.75 167.75 C 60.79 173.05 51.54 162.77 48.00 157.00
C 55.27 155.12 61.52 150.53 66.75 144.75 C 71.18 132.69 76.30 142.95 82.00 147.00
M 77.00 169.00 
C 80.83 164.07 84.01 152.18 91.22 153.78 C 92.85 161.04 84.43 168.84 77.00 169.00
M 131.00 169.00 
C 124.31 167.90 115.75 161.04 117.78 153.78 C 124.12 153.16 128.20 163.98 131.00 169.00
M 99.00 156.00 
C 112.02 151.90 112.49 166.53 120.75 172.25 C 121.56 183.47 99.94 178.20 91.78 178.22 C 79.88 173.50 100.10 164.55 99.00 156.00 Z"/>
</g>
<g fill="None" fill-opacity="0.0" stroke="#FFFFFF" stroke-opacity="0.24" stroke-width="0.3"><path d="
M 20.00 180.00 
C 37.00 181.65 56.41 181.68 73.00 180.00
C 56.17 179.33 38.01 181.33 22.00 179.00
C 17.86 171.09 30.10 173.05 35.00 173.00 C 41.18 172.37 48.58 174.28 54.00 172.00
C 6.41 142.59 1.49 66.75 48.00 34.00
C 48.80 34.13 49.11 35.09 50.00 35.00
C 41.71 29.53 33.90 45.67 28.25 52.25 C 13.58 70.98 11.61 97.34 15.40 120.26 C 19.15 140.67 34.75 157.15 47.00 172.00
C 37.92 174.91 15.80 164.66 20.00 180.00 Z"/>
</g>
<g fill="None" fill-opacity="0.0" stroke="#FFFFFF" stroke-opacity="0.40" stroke-width="0.3"><path d="
M 39.00 52.00 
C 43.09 49.35 45.86 44.70 50.00 42.00
C 50.00 39.67 50.00 37.33 50.00 35.00
C 49.11 35.09 48.80 34.13 48.00 34.00
C 49.54 36.54 47.37 38.71 49.00 41.00
C 45.01 43.87 41.49 47.82 39.00 52.00 Z"/>
</g>
<g fill="None" fill-opacity="0.0" stroke="#FEFEFE" stroke-opacity="0.23" stroke-width="0.3"><path d="
M 104.00 60.00 
C 92.89 48.18 76.68 43.90 62.00 39.00
C 69.51 59.03 99.75 59.85 103.00 83.00
C 109.67 76.57 113.22 64.01 123.77 59.77 C 132.02 54.35 144.23 50.03 146.00 39.00
C 131.32 44.51 115.92 48.79 104.00 60.00
M 141.00 44.00 
C 130.89 57.47 109.50 60.73 105.00 79.00
C 98.73 60.77 76.55 57.86 68.00 43.00
C 81.63 46.49 93.47 53.42 104.03 61.97 C 115.37 55.06 126.63 45.23 141.00 44.00 Z"/>
</g>
<g fill="None" fill-opacity="0.0" stroke="#FFFFFF" stroke-opacity="0.30" stroke-width="0.3"><path d="
M 116.00 43.00 
C 109.08 40.32 99.55 39.78 93.00 43.00
C 96.32 46.07 100.90 48.88 104.92 50.92 C 108.31 47.95 113.00 46.24 116.00 43.00
M 111.00 43.00 
C 110.49 45.99 106.27 46.30 105.00 49.00
C 102.03 47.43 99.68 45.01 97.00 43.00
C 101.67 43.00 106.33 43.00 111.00 43.00 Z"/>
</g>
<g fill="None" fill-opacity="0.0" stroke="#000000" stroke-opacity="0.00" stroke-width="0.3"><path d="
M 141.00 44.00 
C 126.63 45.23 115.37 55.06 104.03 61.97 C 93.47 53.42 81.63 46.49 68.00 43.00
C 76.55 57.86 98.73 60.77 105.00 79.00
C 109.50 60.73 130.89 57.47 141.00 44.00 Z"/>
</g>
<g fill="None" fill-opacity="0.0" stroke="#000000" stroke-opacity="0.00" stroke-width="0.3"><path d="
M 111.00 43.00 
C 106.33 43.00 101.67 43.00 97.00 43.00
C 99.68 45.01 102.03 47.43 105.00 49.00
C 106.27 46.30 110.49 45.99 111.00 43.00 Z"/>
</g>
<g fill="None" fill-opacity="0.0" stroke="#FFFFFF" stroke-opacity="0.24" stroke-width="0.3"><path d="
M 140.00 58.00 
C 137.98 59.02 136.01 59.95 134.00 61.00
C 149.43 75.66 126.71 100.21 112.00 83.00
C 108.04 88.61 110.22 99.81 103.25 101.75 C 98.10 96.71 101.54 87.10 95.00 83.00
C 89.84 90.80 77.62 90.44 72.26 82.74 C 63.95 75.57 76.55 64.71 71.22 59.78 C 61.88 59.95 62.32 76.40 64.08 83.92 C 66.85 91.54 71.26 99.12 78.25 103.75 C 106.74 130.43 164.45 94.03 140.00 58.00
M 71.00 61.00 
C 59.28 77.73 78.87 99.76 96.00 87.00
C 97.61 92.22 99.50 97.42 100.00 103.00
C 110.83 107.58 109.71 93.67 112.00 87.00
C 128.93 100.83 150.60 76.65 137.00 61.00
C 151.94 69.08 141.49 93.81 130.08 102.08 C 116.18 112.68 95.41 114.09 81.30 103.70 C 68.15 95.12 57.93 72.77 71.00 61.00 Z"/>
</g>
<g fill="None" fill-opacity="0.0" stroke="#000000" stroke-opacity="0.00" stroke-width="0.3"><path d="
M 71.00 61.00 
C 57.93 72.77 68.15 95.12 81.30 103.70 C 95.41 114.09 116.18 112.68 130.08 102.08 C 141.49 93.81 151.94 69.08 137.00 61.00
C 150.60 76.65 128.93 100.83 112.00 87.00
C 109.71 93.67 110.83 107.58 100.00 103.00
C 99.50 97.42 97.61 92.22 96.00 87.00
C 78.87 99.76 59.28 77.73 71.00 61.00 Z"/>
</g>
<g fill="None" fill-opacity="0.0" stroke="#FFFFFF" stroke-opacity="0.25" stroke-width="0.3"><path d="
M 83.00 66.00 
C 72.44 65.14 74.51 84.31 84.99 81.99 C 96.75 80.51 89.52 69.33 83.00 66.00
M 79.00 68.00 
C 83.15 67.94 94.65 76.28 86.77 79.77 C 79.55 83.14 74.92 73.70 79.00 68.00 Z"/>
</g>
<g fill="None" fill-opacity="0.0" stroke="#FFFFFF" stroke-opacity="0.28" stroke-width="0.3"><path d="
M 129.00 66.00 
C 121.79 65.74 110.26 77.65 121.31 81.69 C 130.61 86.38 137.44 71.70 129.00 66.00
M 129.00 68.00 
C 136.32 76.37 121.33 87.10 118.00 75.00
C 121.68 72.46 124.14 68.03 129.00 68.00 Z"/>
</g>
<g fill="None" fill-opacity="0.0" stroke="#000000" stroke-opacity="0.00" stroke-width="0.3"><path d="
M 79.00 68.00 
C 74.92 73.70 79.55 83.14 86.77 79.77 C 94.65 76.28 83.15 67.94 79.00 68.00 Z"/>
</g>
<g fill="None" fill-opacity="0.0" stroke="#000000" stroke-opacity="0.00" stroke-width="0.3"><path d="
M 129.00 68.00 
C 124.14 68.03 121.68 72.46 118.00 75.00
C 121.33 87.10 136.32 76.37 129.00 68.00 Z"/>
</g>
<g fill="None" fill-opacity="0.0" stroke="#FFFFFF" stroke-opacity="0.25" stroke-width="0.3"><path d="
M 116.00 138.00 
C 115.20 138.13 114.89 139.09 114.00 139.00
C 115.75 142.82 114.50 148.27 109.00 147.00
C 109.00 143.67 109.00 140.33 109.00 137.00
C 101.17 133.94 98.36 140.98 100.00 148.00
C 86.57 143.75 74.03 130.22 76.00 114.00
C 88.77 119.13 102.72 122.99 117.00 120.00
C 116.09 121.94 114.67 123.68 115.00 126.00
C 115.20 125.76 116.00 126.00 116.00 126.00
C 117.72 123.85 118.29 120.50 120.00 118.00
C 103.88 121.00 86.04 117.55 72.00 109.00
C 73.76 125.80 80.82 147.36 101.00 149.00
C 100.33 145.03 101.78 134.23 107.00 140.00 C 104.44 148.09 110.97 151.16 117.00 147.00
C 117.69 143.72 115.59 141.18 116.00 138.00 Z"/>
</g>
<g fill="None" fill-opacity="0.0" stroke="#FFFFFF" stroke-opacity="0.25" stroke-width="0.3"><path d="
M 136.00 109.00 
C 126.24 116.32 119.28 128.84 123.00 141.00
C 134.20 135.15 134.53 120.13 136.00 109.00
M 125.00 136.00 
C 121.67 128.13 128.04 121.22 132.00 115.00
C 134.10 121.52 131.45 132.65 125.00 136.00 Z"/>
</g>
<g fill="None" fill-opacity="0.0" stroke="#000000" stroke-opacity="0.00" stroke-width="0.3"><path d="
M 114.00 139.00 
C 114.45 134.70 112.96 129.88 115.00 126.00
C 114.67 123.68 116.09 121.94 117.00 120.00
C 102.72 122.99 88.77 119.13 76.00 114.00
C 74.03 130.22 86.57 143.75 100.00 148.00
C 98.36 140.98 101.17 133.94 109.00 137.00
C 109.00 140.33 109.00 143.67 109.00 147.00
C 114.50 148.27 115.75 142.82 114.00 139.00 Z"/>
</g>
<g fill="None" fill-opacity="0.0" stroke="#000000" stroke-opacity="0.00" stroke-width="0.3"><path d="
M 125.00 136.00 
C 131.45 132.65 134.10 121.52 132.00 115.00
C 128.04 121.22 121.67 128.13 125.00 136.00 Z"/>
</g>
<g fill="None" fill-opacity="0.0" stroke="#FFFFFF" stroke-opacity="0.42" stroke-width="0.3"><path d="
M 114.00 139.00 
C 114.89 139.09 115.20 138.13 116.00 138.00
C 116.00 134.00 116.00 130.00 116.00 126.00
C 116.00 126.00 115.20 125.76 115.00 126.00
C 112.96 129.88 114.45 134.70 114.00 139.00 Z"/>
</g>
<g fill="None" fill-opacity="0.0" stroke="#FFFFFF" stroke-opacity="0.25" stroke-width="0.3"><path d="
M 161.00 157.00 
C 149.77 154.94 142.42 143.93 135.00 137.00
C 134.31 141.14 130.06 145.12 127.00 147.00
C 128.28 155.56 135.22 161.68 141.25 167.75 C 148.12 172.77 157.31 162.58 161.00 157.00
M 137.00 141.00 
C 141.45 148.95 149.26 154.27 157.00 158.00
C 154.42 162.50 146.38 170.98 141.75 165.25 C 136.40 160.82 131.88 155.01 129.00 149.00
C 131.81 146.96 133.62 142.06 137.00 141.00 Z"/>
</g>
<g fill="None" fill-opacity="0.0" stroke="#FFFFFF" stroke-opacity="0.24" stroke-width="0.3"><path d="
M 82.00 147.00 
C 76.30 142.95 71.18 132.69 66.75 144.75 C 61.52 150.53 55.27 155.12 48.00 157.00
C 51.54 162.77 60.79 173.05 67.75 167.75 C 73.63 161.61 80.10 155.14 82.00 147.00
M 74.00 141.00 
C 84.96 151.14 71.10 160.58 64.00 168.00
C 59.38 164.90 53.66 163.05 51.00 158.00
C 60.58 155.59 66.95 146.42 74.00 141.00 Z"/>
</g>
<g fill="None" fill-opacity="0.0" stroke="#000000" stroke-opacity="0.00" stroke-width="0.3"><path d="
M 74.00 141.00 
C 66.95 146.42 60.58 155.59 51.00 158.00
C 53.66 163.05 59.38 164.90 64.00 168.00
C 71.10 160.58 84.96 151.14 74.00 141.00 Z"/>
</g>
<g fill="None" fill-opacity="0.0" stroke="#000000" stroke-opacity="0.00" stroke-width="0.3"><path d="
M 137.00 141.00 
C 133.62 142.06 131.81 146.96 129.00 149.00
C 131.88 155.01 136.40 160.82 141.75 165.25 C 146.38 170.98 154.42 162.50 157.00 158.00
C 149.26 154.27 141.45 148.95 137.00 141.00 Z"/>
</g>
<g fill="None" fill-opacity="0.0" stroke="#FBFBFB" stroke-opacity="0.20" stroke-width="0.3"><path d="
M 77.00 169.00 
C 84.43 168.84 92.85 161.04 91.22 153.78 C 84.01 152.18 80.83 164.07 77.00 169.00
M 88.00 159.00 
C 87.31 164.02 82.56 159.45 88.00 159.00 Z"/>
</g>
<g fill="None" fill-opacity="0.0" stroke="#FFFFFF" stroke-opacity="0.25" stroke-width="0.3"><path d="
M 131.00 169.00 
C 128.20 163.98 124.12 153.16 117.78 153.78 C 115.75 161.04 124.31 167.90 131.00 169.00
M 124.00 163.00 
C 121.44 161.48 119.24 158.99 119.00 156.00
C 122.33 156.11 123.22 160.43 124.00 163.00 Z"/>
</g>
<g fill="None" fill-opacity="0.0" stroke="#FFFFFF" stroke-opacity="0.24" stroke-width="0.3"><path d="
M 99.00 156.00 
C 100.10 164.55 79.88 173.50 91.78 178.22 C 99.94 178.20 121.56 183.47 120.75 172.25 C 112.49 166.53 112.02 151.90 99.00 156.00
M 120.00 174.00 
C 112.50 178.87 94.92 180.24 89.00 173.00
C 94.98 170.56 97.85 163.12 101.00 158.00
C 111.20 156.37 112.19 169.39 120.00 174.00 Z"/>
</g>
<g fill="None" fill-opacity="0.0" stroke="#000000" stroke-opacity="0.00" stroke-width="0.3"><path d="
M 124.00 163.00 
C 123.22 160.43 122.33 156.11 119.00 156.00
C 119.24 158.99 121.44 161.48 124.00 163.00 Z"/>
</g>
<g fill="None" fill-opacity="0.0" stroke="#000000" stroke-opacity="0.00" stroke-width="0.3"><path d="
M 120.00 174.00 
C 112.19 169.39 111.20 156.37 101.00 158.00
C 97.85 163.12 94.98 170.56 89.00 173.00
C 94.92 180.24 112.50 178.87 120.00 174.00 Z"/>
</g>
<g fill="None" fill-opacity="0.0" stroke="#000000" stroke-opacity="0.00" stroke-width="0.3"><path d="
M 88.00 159.00 
C 82.56 159.45 87.31 164.02 88.00 159.00 Z"/>
</g>
<g fill="None" fill-opacity="0.0" stroke="#000000" stroke-opacity="0.81" stroke-width="0.3"><path d="
M 73.00 180.00 
C 56.99 177.67 38.83 179.67 22.00 179.00
C 38.01 181.33 56.17 179.33 73.00 180.00 Z"/>
</g>
<g fill="None" fill-opacity="0.0" stroke="#FFFFFF" stroke-opacity="0.03" stroke-width="0.3"><path d="
M 74.00 182.00 
C 74.00 182.00 74.05 181.50 74.00 181.00
C 73.97 180.65 73.30 180.22 73.00 180.00
C 56.41 181.68 37.00 181.65 20.00 180.00
C 36.09 184.65 56.32 180.68 74.00 182.00 Z"/>
</g>
<g fill="#000000" fill-opacity="0.00" stroke="None">
<path d="
M 0.00 209.00 
L 209.00 209.00
L 209.00 0.00
L 0.00 0.00
L 0.00 209.00
M 74.00 182.00 
C 56.32 180.68 36.09 184.65 20.00 180.00
C 15.80 164.66 37.92 174.91 47.00 172.00
C 34.75 157.15 19.15 140.67 15.40 120.26 C 11.61 97.34 13.58 70.98 28.25 52.25 C 33.90 45.67 41.71 29.53 50.00 35.00
C 50.00 37.33 50.00 39.67 50.00 42.00
C 19.14 68.98 13.98 118.83 41.75 149.25 C 63.16 148.55 73.15 121.26 62.07 103.93 C 58.48 93.71 53.96 83.54 55.00 72.00 C 54.72 61.88 65.70 53.81 55.08 45.92 C 51.04 39.09 51.13 16.48 63.75 28.25 C 80.16 45.91 103.99 25.91 123.07 35.93 C 132.31 38.53 141.81 32.11 148.25 25.25 C 161.92 22.63 155.64 44.50 150.25 50.25 C 145.88 59.25 158.14 68.71 154.00 80.00 C 152.12 99.07 132.75 120.82 148.25 138.75 C 153.81 144.78 165.56 155.54 170.90 144.90 C 188.93 120.58 190.87 83.80 172.70 58.30 C 168.09 49.69 155.92 44.52 159.00 33.00
C 174.90 36.85 183.35 56.27 190.77 70.23 C 202.76 105.92 191.07 149.55 160.00 170.00
C 168.38 171.78 179.27 171.50 188.00 170.00
C 189.95 173.33 188.28 177.59 190.00 181.00
C 169.74 182.19 147.85 178.14 129.00 184.00 C 111.43 189.49 90.64 188.83 74.00 182.00 Z"/>
</g>
<g fill="#FFFFFF" fill-opacity="0.25" stroke="None">
<path d="
M 50.00 42.00 
C 45.86 44.70 43.09 49.35 39.00 52.00
C 15.16 79.08 16.33 125.18 41.25 151.75 C 58.23 150.38 74.55 131.06 67.01 113.99 C 62.55 96.51 50.57 76.92 60.77 58.77 C 66.87 50.57 52.42 44.60 55.00 35.00 C 52.76 18.74 64.21 32.29 70.70 35.30 C 88.12 42.39 108.81 28.80 127.02 38.98 C 135.10 36.71 143.54 34.28 149.25 27.25 C 158.70 25.25 152.79 44.10 149.23 49.23 C 139.51 55.66 154.82 63.12 152.00 72.00 C 153.07 97.51 124.27 129.52 155.25 147.75 C 163.12 154.33 171.65 151.34 174.92 141.92 C 195.33 111.89 189.85 65.28 161.00 43.00
C 161.14 39.69 159.34 37.13 161.00 34.00
C 208.36 67.29 201.03 142.83 155.00 173.00
C 161.67 173.00 168.33 173.00 175.00 173.00 C 180.25 172.75 191.81 171.42 187.00 180.00
C 168.46 181.02 146.64 177.50 128.33 182.33 C 110.72 188.03 91.44 185.85 74.00 181.00
C 74.05 181.50 74.00 182.00 74.00 182.00
C 90.64 188.83 111.43 189.49 129.00 184.00 C 147.85 178.14 169.74 182.19 190.00 181.00
C 188.28 177.59 189.95 173.33 188.00 170.00
C 179.27 171.50 168.38 171.78 160.00 170.00
C 191.07 149.55 202.76 105.92 190.77 70.23 C 183.35 56.27 174.90 36.85 159.00 33.00
C 155.92 44.52 168.09 49.69 172.70 58.30 C 190.87 83.80 188.93 120.58 170.90 144.90 C 165.56 155.54 153.81 144.78 148.25 138.75 C 132.75 120.82 152.12 99.07 154.00 80.00 C 158.14 68.71 145.88 59.25 150.25 50.25 C 155.64 44.50 161.92 22.63 148.25 25.25 C 141.81 32.11 132.31 38.53 123.07 35.93 C 103.99 25.91 80.16 45.91 63.75 28.25 C 51.13 16.48 51.04 39.09 55.08 45.92 C 65.70 53.81 54.72 61.88 55.00 72.00 C 53.96 83.54 58.48 93.71 62.07 103.93 C 73.15 121.26 63.16 148.55 41.75 149.25 C 13.98 118.83 19.14 68.98 50.00 42.00 Z"/>
</g>
<g fill="#000000" fill-opacity="0.96" stroke="None">
<path d="
M 39.00 52.00 
C 41.49 47.82 45.01 43.87 49.00 41.00
C 47.37 38.71 49.54 36.54 48.00 34.00
C 1.49 66.75 6.41 142.59 54.00 172.00
C 48.58 174.28 41.18 172.37 35.00 173.00 C 30.10 173.05 17.86 171.09 22.00 179.00
C 38.83 179.67 56.99 177.67 73.00 180.00
C 73.30 180.22 73.97 180.65 74.00 181.00
C 91.44 185.85 110.72 188.03 128.33 182.33 C 146.64 177.50 168.46 181.02 187.00 180.00
C 191.81 171.42 180.25 172.75 175.00 173.00 C 168.33 173.00 161.67 173.00 155.00 173.00
C 201.03 142.83 208.36 67.29 161.00 34.00
C 159.34 37.13 161.14 39.69 161.00 43.00
C 189.85 65.28 195.33 111.89 174.92 141.92 C 171.65 151.34 163.12 154.33 155.25 147.75 C 124.27 129.52 153.07 97.51 152.00 72.00 C 154.82 63.12 139.51 55.66 149.23 49.23 C 152.79 44.10 158.70 25.25 149.25 27.25 C 143.54 34.28 135.10 36.71 127.02 38.98 C 108.81 28.80 88.12 42.39 70.70 35.30 C 64.21 32.29 52.76 18.74 55.00 35.00 C 52.42 44.60 66.87 50.57 60.77 58.77 C 50.57 76.92 62.55 96.51 67.01 113.99 C 74.55 131.06 58.23 150.38 41.25 151.75 C 16.33 125.18 15.16 79.08 39.00 52.00
M 104.00 60.00 
C 115.92 48.79 131.32 44.51 146.00 39.00
C 144.23 50.03 132.02 54.35 123.77 59.77 C 113.22 64.01 109.67 76.57 103.00 83.00
C 99.75 59.85 69.51 59.03 62.00 39.00
C 76.68 43.90 92.89 48.18 104.00 60.00
M 116.00 43.00 
C 113.00 46.24 108.31 47.95 104.92 50.92 C 100.90 48.88 96.32 46.07 93.00 43.00
C 99.55 39.78 109.08 40.32 116.00 43.00
M 140.00 58.00 
C 164.45 94.03 106.74 130.43 78.25 103.75 C 71.26 99.12 66.85 91.54 64.08 83.92 C 62.32 76.40 61.88 59.95 71.22 59.78 C 76.55 64.71 63.95 75.57 72.26 82.74 C 77.62 90.44 89.84 90.80 95.00 83.00
C 101.54 87.10 98.10 96.71 103.25 101.75 C 110.22 99.81 108.04 88.61 112.00 83.00
C 126.71 100.21 149.43 75.66 134.00 61.00
C 136.01 59.95 137.98 59.02 140.00 58.00
M 83.00 66.00 
C 89.52 69.33 96.75 80.51 84.99 81.99 C 74.51 84.31 72.44 65.14 83.00 66.00
M 129.00 66.00 
C 137.44 71.70 130.61 86.38 121.31 81.69 C 110.26 77.65 121.79 65.74 129.00 66.00
M 116.00 126.00 
C 116.00 130.00 116.00 134.00 116.00 138.00
C 115.59 141.18 117.69 143.72 117.00 147.00
C 110.97 151.16 104.44 148.09 107.00 140.00 C 101.78 134.23 100.33 145.03 101.00 149.00
C 80.82 147.36 73.76 125.80 72.00 109.00
C 86.04 117.55 103.88 121.00 120.00 118.00
C 118.29 120.50 117.72 123.85 116.00 126.00
M 136.00 109.00 
C 134.53 120.13 134.20 135.15 123.00 141.00
C 119.28 128.84 126.24 116.32 136.00 109.00
M 161.00 157.00 
C 157.31 162.58 148.12 172.77 141.25 167.75 C 135.22 161.68 128.28 155.56 127.00 147.00
C 130.06 145.12 134.31 141.14 135.00 137.00
C 142.42 143.93 149.77 154.94 161.00 157.00
M 82.00 147.00 
C 80.10 155.14 73.63 161.61 67.75 167.75 C 60.79 173.05 51.54 162.77 48.00 157.00
C 55.27 155.12 61.52 150.53 66.75 144.75 C 71.18 132.69 76.30 142.95 82.00 147.00
M 77.00 169.00 
C 80.83 164.07 84.01 152.18 91.22 153.78 C 92.85 161.04 84.43 168.84 77.00 169.00
M 131.00 169.00 
C 124.31 167.90 115.75 161.04 117.78 153.78 C 124.12 153.16 128.20 163.98 131.00 169.00
M 99.00 156.00 
C 112.02 151.90 112.49 166.53 120.75 172.25 C 121.56 183.47 99.94 178.20 91.78 178.22 C 79.88 173.50 100.10 164.55 99.00 156.00 Z"/>
</g>
<g fill="#FFFFFF" fill-opacity="0.24" stroke="None">
<path d="
M 20.00 180.00 
C 37.00 181.65 56.41 181.68 73.00 180.00
C 56.17 179.33 38.01 181.33 22.00 179.00
C 17.86 171.09 30.10 173.05 35.00 173.00 C 41.18 172.37 48.58 174.28 54.00 172.00
C 6.41 142.59 1.49 66.75 48.00 34.00
C 48.80 34.13 49.11 35.09 50.00 35.00
C 41.71 29.53 33.90 45.67 28.25 52.25 C 13.58 70.98 11.61 97.34 15.40 120.26 C 19.15 140.67 34.75 157.15 47.00 172.00
C 37.92 174.91 15.80 164.66 20.00 180.00 Z"/>
</g>
<g fill="#FFFFFF" fill-opacity="0.40" stroke="None">
<path d="
M 39.00 52.00 
C 43.09 49.35 45.86 44.70 50.00 42.00
C 50.00 39.67 50.00 37.33 50.00 35.00
C 49.11 35.09 48.80 34.13 48.00 34.00
C 49.54 36.54 47.37 38.71 49.00 41.00
C 45.01 43.87 41.49 47.82 39.00 52.00 Z"/>
</g>
<g fill="#FEFEFE" fill-opacity="0.23" stroke="None">
<path d="
M 104.00 60.00 
C 92.89 48.18 76.68 43.90 62.00 39.00
C 69.51 59.03 99.75 59.85 103.00 83.00
C 109.67 76.57 113.22 64.01 123.77 59.77 C 132.02 54.35 144.23 50.03 146.00 39.00
C 131.32 44.51 115.92 48.79 104.00 60.00
M 141.00 44.00 
C 130.89 57.47 109.50 60.73 105.00 79.00
C 98.73 60.77 76.55 57.86 68.00 43.00
C 81.63 46.49 93.47 53.42 104.03 61.97 C 115.37 55.06 126.63 45.23 141.00 44.00 Z"/>
</g>
<g fill="#FFFFFF" fill-opacity="0.30" stroke="None">
<path d="
M 116.00 43.00 
C 109.08 40.32 99.55 39.78 93.00 43.00
C 96.32 46.07 100.90 48.88 104.92 50.92 C 108.31 47.95 113.00 46.24 116.00 43.00
M 111.00 43.00 
C 110.49 45.99 106.27 46.30 105.00 49.00
C 102.03 47.43 99.68 45.01 97.00 43.00
C 101.67 43.00 106.33 43.00 111.00 43.00 Z"/>
</g>
<g fill="#000000" fill-opacity="0.00" stroke="None">
<path d="
M 141.00 44.00 
C 126.63 45.23 115.37 55.06 104.03 61.97 C 93.47 53.42 81.63 46.49 68.00 43.00
C 76.55 57.86 98.73 60.77 105.00 79.00
C 109.50 60.73 130.89 57.47 141.00 44.00 Z"/>
</g>
<g fill="#000000" fill-opacity="0.00" stroke="None">
<path d="
M 111.00 43.00 
C 106.33 43.00 101.67 43.00 97.00 43.00
C 99.68 45.01 102.03 47.43 105.00 49.00
C 106.27 46.30 110.49 45.99 111.00 43.00 Z"/>
</g>
<g fill="#FFFFFF" fill-opacity="0.24" stroke="None">
<path d="
M 140.00 58.00 
C 137.98 59.02 136.01 59.95 134.00 61.00
C 149.43 75.66 126.71 100.21 112.00 83.00
C 108.04 88.61 110.22 99.81 103.25 101.75 C 98.10 96.71 101.54 87.10 95.00 83.00
C 89.84 90.80 77.62 90.44 72.26 82.74 C 63.95 75.57 76.55 64.71 71.22 59.78 C 61.88 59.95 62.32 76.40 64.08 83.92 C 66.85 91.54 71.26 99.12 78.25 103.75 C 106.74 130.43 164.45 94.03 140.00 58.00
M 71.00 61.00 
C 59.28 77.73 78.87 99.76 96.00 87.00
C 97.61 92.22 99.50 97.42 100.00 103.00
C 110.83 107.58 109.71 93.67 112.00 87.00
C 128.93 100.83 150.60 76.65 137.00 61.00
C 151.94 69.08 141.49 93.81 130.08 102.08 C 116.18 112.68 95.41 114.09 81.30 103.70 C 68.15 95.12 57.93 72.77 71.00 61.00 Z"/>
</g>
<g fill="#000000" fill-opacity="0.00" stroke="None">
<path d="
M 71.00 61.00 
C 57.93 72.77 68.15 95.12 81.30 103.70 C 95.41 114.09 116.18 112.68 130.08 102.08 C 141.49 93.81 151.94 69.08 137.00 61.00
C 150.60 76.65 128.93 100.83 112.00 87.00
C 109.71 93.67 110.83 107.58 100.00 103.00
C 99.50 97.42 97.61 92.22 96.00 87.00
C 78.87 99.76 59.28 77.73 71.00 61.00 Z"/>
</g>
<g fill="#FFFFFF" fill-opacity="0.25" stroke="None">
<path d="
M 83.00 66.00 
C 72.44 65.14 74.51 84.31 84.99 81.99 C 96.75 80.51 89.52 69.33 83.00 66.00
M 79.00 68.00 
C 83.15 67.94 94.65 76.28 86.77 79.77 C 79.55 83.14 74.92 73.70 79.00 68.00 Z"/>
</g>
<g fill="#FFFFFF" fill-opacity="0.28" stroke="None">
<path d="
M 129.00 66.00 
C 121.79 65.74 110.26 77.65 121.31 81.69 C 130.61 86.38 137.44 71.70 129.00 66.00
M 129.00 68.00 
C 136.32 76.37 121.33 87.10 118.00 75.00
C 121.68 72.46 124.14 68.03 129.00 68.00 Z"/>
</g>
<g fill="#000000" fill-opacity="0.00" stroke="None">
<path d="
M 79.00 68.00 
C 74.92 73.70 79.55 83.14 86.77 79.77 C 94.65 76.28 83.15 67.94 79.00 68.00 Z"/>
</g>
<g fill="#000000" fill-opacity="0.00" stroke="None">
<path d="
M 129.00 68.00 
C 124.14 68.03 121.68 72.46 118.00 75.00
C 121.33 87.10 136.32 76.37 129.00 68.00 Z"/>
</g>
<g fill="#FFFFFF" fill-opacity="0.25" stroke="None">
<path d="
M 116.00 138.00 
C 115.20 138.13 114.89 139.09 114.00 139.00
C 115.75 142.82 114.50 148.27 109.00 147.00
C 109.00 143.67 109.00 140.33 109.00 137.00
C 101.17 133.94 98.36 140.98 100.00 148.00
C 86.57 143.75 74.03 130.22 76.00 114.00
C 88.77 119.13 102.72 122.99 117.00 120.00
C 116.09 121.94 114.67 123.68 115.00 126.00
C 115.20 125.76 116.00 126.00 116.00 126.00
C 117.72 123.85 118.29 120.50 120.00 118.00
C 103.88 121.00 86.04 117.55 72.00 109.00
C 73.76 125.80 80.82 147.36 101.00 149.00
C 100.33 145.03 101.78 134.23 107.00 140.00 C 104.44 148.09 110.97 151.16 117.00 147.00
C 117.69 143.72 115.59 141.18 116.00 138.00 Z"/>
</g>
<g fill="#FFFFFF" fill-opacity="0.25" stroke="None">
<path d="
M 136.00 109.00 
C 126.24 116.32 119.28 128.84 123.00 141.00
C 134.20 135.15 134.53 120.13 136.00 109.00
M 125.00 136.00 
C 121.67 128.13 128.04 121.22 132.00 115.00
C 134.10 121.52 131.45 132.65 125.00 136.00 Z"/>
</g>
<g fill="#000000" fill-opacity="0.00" stroke="None">
<path d="
M 114.00 139.00 
C 114.45 134.70 112.96 129.88 115.00 126.00
C 114.67 123.68 116.09 121.94 117.00 120.00
C 102.72 122.99 88.77 119.13 76.00 114.00
C 74.03 130.22 86.57 143.75 100.00 148.00
C 98.36 140.98 101.17 133.94 109.00 137.00
C 109.00 140.33 109.00 143.67 109.00 147.00
C 114.50 148.27 115.75 142.82 114.00 139.00 Z"/>
</g>
<g fill="#000000" fill-opacity="0.00" stroke="None">
<path d="
M 125.00 136.00 
C 131.45 132.65 134.10 121.52 132.00 115.00
C 128.04 121.22 121.67 128.13 125.00 136.00 Z"/>
</g>
<g fill="#FFFFFF" fill-opacity="0.42" stroke="None">
<path d="
M 114.00 139.00 
C 114.89 139.09 115.20 138.13 116.00 138.00
C 116.00 134.00 116.00 130.00 116.00 126.00
C 116.00 126.00 115.20 125.76 115.00 126.00
C 112.96 129.88 114.45 134.70 114.00 139.00 Z"/>
</g>
<g fill="#FFFFFF" fill-opacity="0.25" stroke="None">
<path d="
M 161.00 157.00 
C 149.77 154.94 142.42 143.93 135.00 137.00
C 134.31 141.14 130.06 145.12 127.00 147.00
C 128.28 155.56 135.22 161.68 141.25 167.75 C 148.12 172.77 157.31 162.58 161.00 157.00
M 137.00 141.00 
C 141.45 148.95 149.26 154.27 157.00 158.00
C 154.42 162.50 146.38 170.98 141.75 165.25 C 136.40 160.82 131.88 155.01 129.00 149.00
C 131.81 146.96 133.62 142.06 137.00 141.00 Z"/>
</g>
<g fill="#FFFFFF" fill-opacity="0.24" stroke="None">
<path d="
M 82.00 147.00 
C 76.30 142.95 71.18 132.69 66.75 144.75 C 61.52 150.53 55.27 155.12 48.00 157.00
C 51.54 162.77 60.79 173.05 67.75 167.75 C 73.63 161.61 80.10 155.14 82.00 147.00
M 74.00 141.00 
C 84.96 151.14 71.10 160.58 64.00 168.00
C 59.38 164.90 53.66 163.05 51.00 158.00
C 60.58 155.59 66.95 146.42 74.00 141.00 Z"/>
</g>
<g fill="#000000" fill-opacity="0.00" stroke="None">
<path d="
M 74.00 141.00 
C 66.95 146.42 60.58 155.59 51.00 158.00
C 53.66 163.05 59.38 164.90 64.00 168.00
C 71.10 160.58 84.96 151.14 74.00 141.00 Z"/>
</g>
<g fill="#000000" fill-opacity="0.00" stroke="None">
<path d="
M 137.00 141.00 
C 133.62 142.06 131.81 146.96 129.00 149.00
C 131.88 155.01 136.40 160.82 141.75 165.25 C 146.38 170.98 154.42 162.50 157.00 158.00
C 149.26 154.27 141.45 148.95 137.00 141.00 Z"/>
</g>
<g fill="#FBFBFB" fill-opacity="0.20" stroke="None">
<path d="
M 77.00 169.00 
C 84.43 168.84 92.85 161.04 91.22 153.78 C 84.01 152.18 80.83 164.07 77.00 169.00
M 88.00 159.00 
C 87.31 164.02 82.56 159.45 88.00 159.00 Z"/>
</g>
<g fill="#FFFFFF" fill-opacity="0.25" stroke="None">
<path d="
M 131.00 169.00 
C 128.20 163.98 124.12 153.16 117.78 153.78 C 115.75 161.04 124.31 167.90 131.00 169.00
M 124.00 163.00 
C 121.44 161.48 119.24 158.99 119.00 156.00
C 122.33 156.11 123.22 160.43 124.00 163.00 Z"/>
</g>
<g fill="#FFFFFF" fill-opacity="0.24" stroke="None">
<path d="
M 99.00 156.00 
C 100.10 164.55 79.88 173.50 91.78 178.22 C 99.94 178.20 121.56 183.47 120.75 172.25 C 112.49 166.53 112.02 151.90 99.00 156.00
M 120.00 174.00 
C 112.50 178.87 94.92 180.24 89.00 173.00
C 94.98 170.56 97.85 163.12 101.00 158.00
C 111.20 156.37 112.19 169.39 120.00 174.00 Z"/>
</g>
<g fill="#000000" fill-opacity="0.00" stroke="None">
<path d="
M 124.00 163.00 
C 123.22 160.43 122.33 156.11 119.00 156.00
C 119.24 158.99 121.44 161.48 124.00 163.00 Z"/>
</g>
<g fill="#000000" fill-opacity="0.00" stroke="None">
<path d="
M 120.00 174.00 
C 112.19 169.39 111.20 156.37 101.00 158.00
C 97.85 163.12 94.98 170.56 89.00 173.00
C 94.92 180.24 112.50 178.87 120.00 174.00 Z"/>
</g>
<g fill="#000000" fill-opacity="0.00" stroke="None">
<path d="
M 88.00 159.00 
C 82.56 159.45 87.31 164.02 88.00 159.00 Z"/>
</g>
<g fill="#000000" fill-opacity="0.81" stroke="None">
<path d="
M 73.00 180.00 
C 56.99 177.67 38.83 179.67 22.00 179.00
C 38.01 181.33 56.17 179.33 73.00 180.00 Z"/>
</g>
<g fill="#FFFFFF" fill-opacity="0.03" stroke="None">
<path d="
M 74.00 182.00 
C 74.00 182.00 74.05 181.50 74.00 181.00
C 73.97 180.65 73.30 180.22 73.00 180.00
C 56.41 181.68 37.00 181.65 20.00 180.00
C 36.09 184.65 56.32 180.68 74.00 182.00 Z"/>
</g>
</svg>